# xmcd
#
# Track frame offsets:
#	150
#	15510
#	30917
#	49852
#	65965
#	81207
#	98275
#	113417
#	124675
#	138672
#	152760
#	167300
#	197507
#
# Disc length: 3332 seconds
# Revision: 8
# Processed by: cddbd v1.5.2PL0 Copyright (c) Steve Scherf et al.
# Submitted via: dBpowerAMP V12.0
#
DISCID=960d020d
DTITLE=Katie Melua - Call off the Search
DYEAR=2004
DGENRE=Blues
TTITLE0=Call Off the Search
TTITLE1=Crawling Up a Hill
TTITLE2=The Closest Thing to Crazy
TTITLE3=My Aphrodisiac Is You
TTITLE4=Learnin' the Blues
TTITLE5=Blame It on the Moon
TTITLE6=Belfast (Penguins and Cats)
TTITLE7=I Think It’s Going to Rain Today
TTITLE8=Mockingbird Song
TTITLE9=Tiger in the Night
TTITLE10=Faraway Voice
TTITLE11=Lilac Wine
TTITLE12=DATA
EXTD=
EXTT0=
EXTT1=
EXTT2=
EXTT3=
EXTT4=
EXTT5=
EXTT6=
EXTT7=
EXTT8=
EXTT9=
EXTT10=
EXTT11=
EXTT12=
PLAYORDER=
